<?xml version="1.0" encoding="UTF-8" standalone="no"?>
<!-- Created with Inkscape (http://www.inkscape.org/) -->

<svg
   width="297mm"
   height="210mm"
   viewBox="0 0 297 210"
   version="1.1"
   id="svg1"
   inkscape:version="1.2.2 (b0a8486, 2022-12-01)"
   sodipodi:docname="pyronica harry potter.svg"
   xmlns:inkscape="http://www.inkscape.org/namespaces/inkscape"
   xmlns:sodipodi="http://sodipodi.sourceforge.net/DTD/sodipodi-0.dtd"
   xmlns:xlink="http://www.w3.org/1999/xlink"
   xmlns="http://www.w3.org/2000/svg"
   xmlns:svg="http://www.w3.org/2000/svg">
  <sodipodi:namedview
     id="namedview1"
     pagecolor="#ffffff"
     bordercolor="#000000"
     borderopacity="0.25"
     inkscape:showpageshadow="2"
     inkscape:pageopacity="0.0"
     inkscape:pagecheckerboard="0"
     inkscape:deskcolor="#d1d1d1"
     inkscape:document-units="mm"
     inkscape:zoom="0.93012915"
     inkscape:cx="349.9514"
     inkscape:cy="401.55714"
     inkscape:window-width="2507"
     inkscape:window-height="1027"
     inkscape:window-x="53"
     inkscape:window-y="25"
     inkscape:window-maximized="0"
     inkscape:current-layer="layer1"
     showgrid="false" />
  <defs
     id="defs1">
    <linearGradient
       inkscape:collect="always"
       id="linearGradient4451">
      <stop
         style="stop-color:#f33f32;stop-opacity:1;"
         offset="0"
         id="stop4447" />
      <stop
         style="stop-color:#f34c32;stop-opacity:1;"
         offset="1"
         id="stop4449" />
    </linearGradient>
    <linearGradient
       inkscape:collect="always"
       id="linearGradient4376">
      <stop
         style="stop-color:#f38032;stop-opacity:1;"
         offset="0"
         id="stop4372" />
      <stop
         style="stop-color:#f32232;stop-opacity:1;"
         offset="1"
         id="stop4374" />
    </linearGradient>
    <linearGradient
       inkscape:collect="always"
       id="linearGradient4366">
      <stop
         style="stop-color:#f36632;stop-opacity:1;"
         offset="0"
         id="stop4362" />
      <stop
         style="stop-color:#f3dc32;stop-opacity:1;"
         offset="1"
         id="stop4364" />
    </linearGradient>
    <linearGradient
       inkscape:collect="always"
       id="linearGradient1811">
      <stop
         style="stop-color:#f30e32;stop-opacity:1;"
         offset="0.27238807"
         id="stop1807" />
      <stop
         style="stop-color:#f39732;stop-opacity:0.76973689;"
         offset="1"
         id="stop1809" />
    </linearGradient>
    <linearGradient
       inkscape:collect="always"
       id="linearGradient1803">
      <stop
         style="stop-color:#f30e32;stop-opacity:1;"
         offset="0.35820895"
         id="stop1799" />
      <stop
         style="stop-color:#f36f32;stop-opacity:1;"
         offset="1"
         id="stop1801" />
    </linearGradient>
    <linearGradient
       inkscape:collect="always"
       id="linearGradient1795">
      <stop
         style="stop-color:#f30e32;stop-opacity:1;"
         offset="0.37873134"
         id="stop1791" />
      <stop
         style="stop-color:#f36332;stop-opacity:0.50657892;"
         offset="1"
         id="stop1793" />
    </linearGradient>
    <linearGradient
       inkscape:collect="always"
       id="linearGradient1787">
      <stop
         style="stop-color:#f30e32;stop-opacity:1;"
         offset="0.58188498"
         id="stop1783" />
      <stop
         style="stop-color:#f3b432;stop-opacity:1;"
         offset="1"
         id="stop1785" />
    </linearGradient>
    <linearGradient
       inkscape:collect="always"
       id="linearGradient1771">
      <stop
         style="stop-color:#f30e32;stop-opacity:1;"
         offset="0"
         id="stop1767" />
      <stop
         style="stop-color:#f37822;stop-opacity:0.83552629;"
         offset="1"
         id="stop1769" />
    </linearGradient>
    <linearGradient
       inkscape:collect="always"
       xlink:href="#linearGradient1771"
       id="linearGradient1773"
       x1="17.958392"
       y1="91.00698"
       x2="183.64028"
       y2="91.00698"
       gradientUnits="userSpaceOnUse" />
    <linearGradient
       inkscape:collect="always"
       xlink:href="#linearGradient1787"
       id="linearGradient1789"
       x1="17.91469"
       y1="98.880778"
       x2="183.58843"
       y2="98.880778"
       gradientUnits="userSpaceOnUse" />
    <linearGradient
       inkscape:collect="always"
       xlink:href="#linearGradient1795"
       id="linearGradient1797"
       x1="17.991332"
       y1="103.82055"
       x2="183.45611"
       y2="103.82055"
       gradientUnits="userSpaceOnUse" />
    <linearGradient
       inkscape:collect="always"
       xlink:href="#linearGradient1803"
       id="linearGradient1805"
       x1="17.892775"
       y1="83.673075"
       x2="189.64659"
       y2="83.673075"
       gradientUnits="userSpaceOnUse" />
    <linearGradient
       inkscape:collect="always"
       xlink:href="#linearGradient1811"
       id="linearGradient1813"
       x1="17.849073"
       y1="98.281506"
       x2="186.70627"
       y2="98.281506"
       gradientUnits="userSpaceOnUse" />
    <linearGradient
       inkscape:collect="always"
       xlink:href="#linearGradient4366"
       id="linearGradient4368"
       x1="148.32073"
       y1="66.821688"
       x2="174.81954"
       y2="66.821688"
       gradientUnits="userSpaceOnUse" />
    <linearGradient
       inkscape:collect="always"
       xlink:href="#linearGradient4376"
       id="linearGradient4378"
       x1="160.59577"
       y1="50.797427"
       x2="180.57231"
       y2="50.797427"
       gradientUnits="userSpaceOnUse" />
    <linearGradient
       inkscape:collect="always"
       xlink:href="#linearGradient4451"
       id="linearGradient4453"
       x1="165.41205"
       y1="38.783418"
       x2="171.43125"
       y2="38.783418"
       gradientUnits="userSpaceOnUse" />
  </defs>
  <g
     inkscape:label="Layer 1"
     inkscape:groupmode="layer"
     id="layer1">
    <path
       style="opacity:1;fill:none;stroke:url(#linearGradient4453);stroke-width:0.6;stroke-dasharray:none;stroke-opacity:1"
       d="m 169.1857,57.542729 c 0.21006,-12.391945 -1.14995,-27.494292 2.34195,-35.632745"
       id="path4445"
       sodipodi:nodetypes="cc" />
    <path
       style="opacity:1;fill:none;stroke:url(#linearGradient4378);stroke-width:0.6;stroke-dasharray:none;stroke-opacity:1"
       d="m 161.0318,79.180742 c 6.38555,-11.377877 -1.63432,-20.853756 5.018,-29.91629 8.31564,-11.328492 15.99108,-19.786686 18.90765,-23.206112"
       id="path4370"
       sodipodi:nodetypes="csc" />
    <path
       style="opacity:1;fill:none;stroke:url(#linearGradient4368);stroke-width:0.8;stroke-dasharray:none;stroke-opacity:1"
       d="M 158.79541,110.443 C 144.1678,97.976286 154.72889,72.700603 156.73556,67.103423 159.59654,59.123325 167.47967,41.564621 174.36767,20.944067"
       id="path4171"
       sodipodi:nodetypes="csc" />
    <path
       style="fill:none;fill-opacity:1;stroke:url(#linearGradient1805);stroke-width:1.065;stroke-opacity:1"
       d="m 17.892824,150.6404 c 0,0 75.473415,0.007 113.210126,0.01 37.73671,0.003 45.11541,-7.40991 50.90761,-21.55238 5.03061,-12.28292 -9.82785,-20.58964 -16.35006,-36.618767 -6.5222,-16.029129 13.67984,-67.174049 17.50155,-68.582048"
       id="path1"
       sodipodi:nodetypes="csssc" />
    <path
       style="fill:none;fill-opacity:1;stroke:url(#linearGradient1773);stroke-width:1.065;stroke-opacity:1"
       d="m 17.958441,160.53342 c 0,0 75.473418,0.007 113.210129,0.01 37.73671,0.003 44.94483,-7.55056 50.87479,-21.67682 5.87373,-13.9923 -11.15378,-20.7615 -17.658,-37.321 -6.50422,-16.559509 12.7906,-76.136175 12.7906,-76.136175"
       id="path1-4"
       sodipodi:nodetypes="csssc" />
    <path
       style="fill:none;fill-opacity:1;stroke:url(#linearGradient1813);stroke-width:1.065;stroke-opacity:1"
       d="m 17.96642,169.57077 c 0,0 75.356119,-0.0517 113.09283,-0.0487 37.73671,0.003 43.9124,-7.92032 50.78108,-21.56667 6.6489,-13.20969 -16.14297,-24.29283 -24.39376,-40.12206 -8.65355,-16.601937 28.79279,-81.068964 28.79279,-81.068964"
       id="path1-5" />
    <path
       style="fill:none;fill-opacity:1;stroke:url(#linearGradient1789);stroke-width:1.065;stroke-opacity:1"
       d="m 17.914739,179.40514 c 0,0 75.473419,0.007 113.210131,0.01 37.73671,0.003 44.87222,-7.4766 50.82246,-21.54275 6.33838,-14.98369 -10.53567,-20.8202 -20.89769,-35.28848 -10.58813,-14.78399 11.31535,-99.680477 15.29907,-101.423352"
       id="path1-4-3"
       sodipodi:nodetypes="csssc" />
    <path
       style="fill:none;fill-opacity:1;stroke:url(#linearGradient1797);stroke-width:1.065;stroke-dasharray:none;stroke-opacity:1"
       d="m 17.991381,187.64187 c 0,0 75.473417,0.007 113.210129,0.01 37.73671,0.003 43.78084,-8.09195 50.78414,-21.72929 6.84713,-13.33322 -25.43871,-27.77651 -32.05373,-43.8167 -6.61502,-16.04018 1.54821,-81.121695 28.76703,-98.653368"
       id="path1-4-3-9"
       sodipodi:nodetypes="csssc" />
    <g
       id="g2"
       transform="matrix(0.17309363,0,0,0.21254642,6.8033877,141.81521)">
      <path
         d="m 156.716,61.478 c -4.111,6.276 -8.881,11.511 -14.212,15.609 l -8.728,6.962 c -13.339,11.855 -22.937,21.433 -28.542,28.464 -10.209,12.788 -15.806,25.779 -16.65,38.611 -0.942,14.473 3.187,28.21 12.275,40.84 9.636,13.458 21.8,20.754 36.164,21.69 3.291,0.218 6.897,0.182 9.896,-0.015 l -1.121,-10.104 c -2.09,0.192 -4.306,0.223 -6.628,0.068 -9.437,-0.617 -17.864,-4.511 -25.064,-11.573 -7.524,-7.333 -10.895,-15.415 -10.287,-24.7 1.149,-17.59 12.562,-35.004 33.925,-51.792 l 9.543,-7.599 c 8.394,-7.174 15.192,-16.191 20.216,-26.825 4.971,-10.556 7.886,-21.983 8.673,-33.96 0.466,-7.037 -0.513,-15.775 -2.874,-25.965 C 170.061,7.35 165.448,0.424 159.166,0.01 c -2.232,-0.138 -4.676,0.986 -7.658,3.617 -7.252,6.548 -12.523,14.481 -15.683,23.542 -2.438,6.926 -4.057,16.189 -4.805,27.529 -0.313,4.72 0.313,13.438 1.805,23.962 l 8.844,-8.192 c -0.028,-1.183 0.005,-2.413 0.096,-3.703 0.466,-7.221 2.289,-15.062 5.394,-23.293 3.956,-10.296 7.689,-13.409 10.133,-14.204 0.668,-0.218 1.32,-0.298 2.015,-0.254 3.185,0.212 6.358,1.559 5.815,9.979 -0.458,7.139 -3.291,14.7 -8.406,22.485 z"
         id="path1-3" />
      <path
         d="m 164.55,209.161 c 5.728,-2.568 10.621,-6.478 14.576,-11.651 5.055,-6.561 7.897,-14.316 8.467,-23.047 0.72,-10.719 -1.854,-20.438 -7.617,-28.895 -6.322,-9.264 -14.98,-14.317 -25.745,-15.026 -1.232,-0.081 -2.543,-0.075 -3.895,0.025 l -2.304,-17.191 -9.668,7.112 1.483,12.194 c -5.789,2.393 -10.827,6.17 -15.017,11.255 -4.823,5.924 -7.508,12.443 -7.964,19.382 -0.466,7.208 1.142,13.81 4.782,19.583 1.895,3.081 4.507,5.82 7.498,8.058 4.906,3.65 10.563,3.376 11.459,1.393 0.906,-1.983 -2.455,-5.095 -5.09,-9.248 -1.502,-2.351 -2.242,-5.173 -2.242,-8.497 0,-7.053 4.256,-13.116 10.317,-15.799 l 5.673,44.211 1.325,10.258 c 0.864,4.873 1.719,9.725 2.537,14.52 1,6.488 1.352,12.112 1.041,16.715 -0.419,6.375 -2.408,11.584 -5.919,15.493 -2.234,2.485 -4.844,4.055 -7.795,4.925 3.961,-3.962 6.414,-9.43 6.414,-15.478 0,-12.075 -9.792,-21.872 -21.87,-21.872 -3.353,0 -6.491,0.812 -9.329,2.159 -0.36,0.155 -0.699,0.388 -1.054,0.574 -0.779,0.425 -1.559,0.85 -2.286,1.362 -0.249,0.187 -0.487,0.403 -0.732,0.605 -4.888,3.816 -8.091,9.616 -8.375,16.229 0,0.01 -0.011,0.021 -0.011,0.031 0,0.005 0,0.01 0,0.016 -0.013,0.311 -0.09,0.59 -0.09,0.896 0,0.259 0.067,0.492 0.078,0.74 -0.011,7.084 2.933,13.179 8.839,18.118 5.584,4.666 12.277,7.28 19.892,7.777 4.327,0.28 8.505,-0.217 12.407,-1.485 3.189,-1.041 6.275,-2.62 9.149,-4.687 6.96,-5.022 10.75,-11.584 11.272,-19.532 0.399,-6.063 0.094,-13.235 -0.937,-21.411 l -2.838,-18.429 -7.156,-52.899 c 7.984,1.532 14.027,8.543 14.027,16.968 0,5.986 -1.937,15.431 -5.551,20.376 z"
         id="path2" />
    </g>
    <path
       style="fill:none;fill-opacity:1;stroke:#000000;stroke-width:1.065;stroke-opacity:1"
       d="m 18.375141,150.09714 0.08839,38.10614"
       id="path14"
       sodipodi:nodetypes="cc" />
    <text
       xml:space="preserve"
       style="font-style:normal;font-variant:normal;font-weight:normal;font-stretch:normal;font-size:17.6389px;line-height:1.25;font-family:Didot;-inkscape-font-specification:Didot;stroke-width:0.264583"
       x="40.228531"
       y="196.51047"
       id="text13048"><tspan
         sodipodi:role="line"
         id="tspan13046"
         style="font-style:normal;font-variant:normal;font-weight:normal;font-stretch:normal;font-size:17.6389px;font-family:Didot;-inkscape-font-specification:Didot;stroke-width:0.264583"
         x="40.228531"
         y="196.51047">P</tspan></text>
    <text
       xml:space="preserve"
       style="font-style:normal;font-variant:normal;font-weight:normal;font-stretch:normal;font-size:14.1111px;line-height:1.25;font-family:Didot;-inkscape-font-specification:Didot;stroke-width:0.264583"
       x="54.318142"
       y="177.76395"
       id="text13048-0"><tspan
         sodipodi:role="line"
         id="tspan13046-0"
         style="font-style:normal;font-variant:normal;font-weight:normal;font-stretch:normal;font-size:14.1111px;font-family:Didot;-inkscape-font-specification:Didot;stroke-width:0.264583"
         x="54.318142"
         y="177.76395">y</tspan></text>
    <text
       xml:space="preserve"
       style="font-style:normal;font-variant:normal;font-weight:normal;font-stretch:normal;font-size:14.1111px;line-height:1.25;font-family:Didot;-inkscape-font-specification:Didot;stroke-width:0.264583"
       x="63.270309"
       y="169.10458"
       id="text13048-0-8"><tspan
         sodipodi:role="line"
         id="tspan13046-0-4"
         style="font-style:normal;font-variant:normal;font-weight:normal;font-stretch:normal;font-size:14.1111px;font-family:Didot;-inkscape-font-specification:Didot;stroke-width:0.264583"
         x="63.270309"
         y="169.10458">r</tspan></text>
    <text
       xml:space="preserve"
       style="font-style:normal;font-variant:normal;font-weight:normal;font-stretch:normal;font-size:14.1111px;line-height:1.25;font-family:Didot;-inkscape-font-specification:Didot;stroke-width:0.264583"
       x="70.948242"
       y="172.89426"
       id="text13048-0-7"><tspan
         sodipodi:role="line"
         id="tspan13046-0-48"
         style="font-style:normal;font-variant:normal;font-weight:normal;font-stretch:normal;font-size:14.1111px;font-family:Didot;-inkscape-font-specification:Didot;stroke-width:0.264583"
         x="70.948242"
         y="172.89426">o</tspan></text>
    <text
       xml:space="preserve"
       style="font-style:normal;font-variant:normal;font-weight:normal;font-stretch:normal;font-size:14.1111px;line-height:1.25;font-family:Didot;-inkscape-font-specification:Didot;stroke-width:0.264583"
       x="80.235313"
       y="177.81335"
       id="text13048-0-6"><tspan
         sodipodi:role="line"
         id="tspan13046-0-7"
         style="font-style:normal;font-variant:normal;font-weight:normal;font-stretch:normal;font-size:14.1111px;font-family:Didot;-inkscape-font-specification:Didot;stroke-width:0.264583"
         x="80.235313"
         y="177.81335">n</tspan></text>
    <text
       xml:space="preserve"
       style="font-style:normal;font-variant:normal;font-weight:normal;font-stretch:normal;font-size:14.1111px;line-height:1.25;font-family:Didot;-inkscape-font-specification:Didot;stroke-width:0.264583"
       x="94.524818"
       y="160.5363"
       id="text13048-0-0"><tspan
         sodipodi:role="line"
         id="tspan13046-0-487"
         style="font-style:normal;font-variant:normal;font-weight:normal;font-stretch:normal;font-size:14.1111px;font-family:Didot;-inkscape-font-specification:Didot;stroke-width:0.264583"
         x="94.524818"
         y="160.5363">i</tspan></text>
    <text
       xml:space="preserve"
       style="font-style:normal;font-variant:normal;font-weight:normal;font-stretch:normal;font-size:14.1111px;line-height:1.25;font-family:Didot;-inkscape-font-specification:Didot;stroke-width:0.264583"
       x="103.61912"
       y="164.27472"
       id="text13048-0-77"><tspan
         sodipodi:role="line"
         id="tspan13046-0-9"
         style="font-style:normal;font-variant:normal;font-weight:normal;font-stretch:normal;font-size:14.1111px;font-family:Didot;-inkscape-font-specification:Didot;stroke-width:0.264583"
         x="103.61912"
         y="164.27472">c</tspan></text>
    <text
       xml:space="preserve"
       style="font-style:normal;font-variant:normal;font-weight:normal;font-stretch:normal;font-size:14.1111px;line-height:1.25;font-family:Didot;-inkscape-font-specification:Didot;stroke-width:0.264583"
       x="115.89722"
       y="168.33208"
       id="text13048-0-4"><tspan
         sodipodi:role="line"
         id="tspan13046-0-2"
         style="font-style:normal;font-variant:normal;font-weight:normal;font-stretch:normal;font-size:14.1111px;font-family:Didot;-inkscape-font-specification:Didot;stroke-width:0.264583"
         x="115.89722"
         y="168.33208">a</tspan></text>
  </g>
</svg>
